<svg width="90" height="90" viewBox="0 0 90 90" fill="none" xmlns="http://www.w3.org/2000/svg">
<path d="M40.2879 54.6421C39.9054 54.3938 39.5261 54.1174 39.15 53.8128C38.8089 53.5007 38.4954 53.1462 38.2095 52.7492C37.7875 52.143 37.435 51.4762 37.1521 50.7489C36.9043 50.0141 36.7265 49.2644 36.6188 48.4998C36.3437 46.6903 36.4441 44.8375 36.9199 42.9415C37.4094 41.0243 38.1784 39.2582 39.2267 37.6434C40.6613 35.4335 42.4726 33.5739 44.6606 32.0646C45.0439 31.7999 45.4834 31.5416 45.9792 31.2896C46.4963 31.0514 47.0208 30.8483 47.5528 30.6802C48.1198 30.5046 48.6592 30.3716 49.1711 30.281C49.7042 30.2042 50.189 30.2018 50.6255 30.2738C51.2309 30.3648 51.8789 30.4834 52.5693 30.6295C53.3871 30.8585 54.2142 31.2594 55.0503 31.8325C55.8865 32.4055 56.5999 33.0046 57.1908 33.6298C58.0165 34.498 58.5799 35.4679 58.8811 36.5393C59.196 37.5895 59.322 38.6982 59.2589 39.8654C59.2097 41.0113 58.999 42.1733 58.6269 43.3513C58.2686 44.5081 57.8221 45.6378 57.2875 46.7405C56.9311 47.4756 56.5215 48.1762 56.0589 48.8424C55.61 49.4873 55.1224 50.1221 54.5959 50.7469C54.1109 51.3079 53.6046 51.8552 53.0771 52.3886C52.5708 52.9359 52.0359 53.4342 51.4722 53.8838C50.9085 54.3334 50.3055 54.7272 49.6632 55.0653C49.0346 55.3821 48.3524 55.6188 47.6165 55.7754C46.2987 56.0374 45.0168 56.0811 43.771 55.9066C42.5602 55.7246 41.3991 55.3031 40.2879 54.6421ZM52.3191 36.0396C52.0216 35.8465 51.7034 35.6853 51.3645 35.5559C51.0607 35.4191 50.7261 35.3529 50.3608 35.3574C49.9392 35.3555 49.5218 35.4168 49.1088 35.5413C48.6957 35.6658 48.3076 35.8216 47.9445 36.0087C47.0017 36.484 46.1625 37.102 45.427 37.8628C44.6914 38.6237 44.034 39.4503 43.4546 40.3427C42.8615 41.2564 42.3433 42.2641 41.9 43.3656C41.4779 44.481 41.2704 45.6148 41.2774 46.7671C41.2841 47.3151 41.3609 47.8482 41.5077 48.3664C41.6896 48.8772 41.9729 49.348 42.3576 49.779C42.7136 50.1611 43.1179 50.4688 43.5705 50.7022C44.0443 50.9494 44.5483 51.0803 45.0825 51.0949C45.947 51.1124 46.7668 50.9197 47.5418 50.5168C48.3169 50.1138 49.0308 49.5957 49.6836 48.9623C50.3576 48.3428 50.9604 47.6468 51.4921 46.8744C52.045 46.1158 52.5071 45.404 52.8784 44.7389C53.2497 44.0739 53.578 43.3356 53.8632 42.524C54.1485 41.7125 54.3073 40.9095 54.3398 40.1151C54.3935 39.3345 54.2614 38.5842 53.9434 37.8643C53.6605 37.137 53.119 36.5288 52.3191 36.0396Z" fill="white"/>
<path d="M40.8462 37.3779C40.79 37.7034 40.6357 38.0425 40.3835 38.3952C39.8807 39.1365 39.3046 39.8453 38.6553 40.5218C38.0418 41.1966 37.4461 41.8705 36.8684 42.5436C36.1696 43.312 35.4794 44.0712 34.7977 44.8209C34.1348 45.5877 33.4539 46.3553 32.7551 47.1238L30.5822 49.5137L31.7912 50.6129C31.9974 50.8004 32.1873 51.0245 32.3611 51.2852C32.552 51.5272 32.69 51.7897 32.7752 52.0726C32.8604 52.3554 32.8919 52.6409 32.8697 52.9289C32.8475 53.2169 32.735 53.4912 32.5322 53.7519C31.9868 54.3517 31.4245 54.5937 30.8451 54.4777C30.2827 54.3431 29.7221 54.0559 29.1632 53.6162C29.1257 53.5821 29.0328 53.5148 28.8846 53.4142C28.7721 53.3119 28.6409 53.1927 28.491 53.0563C28.341 52.92 28.2004 52.7921 28.0692 52.6729C27.9568 52.5706 27.9082 52.4922 27.9236 52.4377L26.1852 54.3495C25.9977 54.5557 25.7847 54.79 25.5461 55.0524C25.3075 55.3148 25.0502 55.5602 24.7741 55.7885C24.515 55.9981 24.227 56.1642 23.9101 56.2869C23.6118 56.4266 23.3 56.4683 22.9745 56.4121C22.8297 56.3831 22.6652 56.3192 22.4812 56.2203C22.3329 56.1198 22.1659 56.0022 21.9802 55.8675C21.7945 55.7329 21.6173 55.5889 21.4486 55.4355C21.3157 55.2804 21.21 55.133 21.1316 54.9932C20.8965 54.574 20.894 54.1437 21.1241 53.7024C21.3712 53.2423 21.6209 52.8359 21.8731 52.4832C21.9243 52.4269 22.0862 52.2489 22.3588 51.949C22.6486 51.6303 22.9468 51.3023 23.2536 50.9649C23.5774 50.6088 23.8578 50.2816 24.0946 49.9834C24.3315 49.6852 24.4312 49.5191 24.3938 49.485L19.4454 44.9858C18.9019 44.4915 18.3387 43.9623 17.7559 43.3982C17.1732 42.8341 16.8111 42.1968 16.6697 41.4861C16.5539 40.9357 16.6042 40.485 16.8207 40.1339C17.0542 39.7642 17.3541 39.4719 17.7205 39.2573C18.1227 39.0409 18.5632 38.8765 19.0421 38.764C19.5209 38.6516 19.9649 38.5588 20.3739 38.4855C21.9553 38.1772 23.5257 37.8246 25.085 37.4277C26.663 37.0478 28.2325 36.6773 29.7935 36.3162C30.6285 36.1509 31.4559 36.013 32.2755 35.9023C33.114 35.8086 33.9413 35.6706 34.7576 35.4884C35.3779 35.3334 36.0255 35.186 36.7003 35.0463C37.3939 34.9237 38.0773 34.9629 38.7504 35.1641C39.3877 35.3669 39.9125 35.6558 40.3249 36.0308C40.7372 36.4057 40.911 36.8547 40.8462 37.3779ZM33.4613 39.9079L22.8121 42.2433L27.4793 46.4869L33.4613 39.9079Z" fill="white"/>
<path d="M62.6476 32.2695C62.9364 32.4298 63.2058 32.6871 63.4559 33.0414C63.9902 33.7602 64.4699 34.5375 64.8948 35.3734C65.33 36.1749 65.7702 36.9592 66.2155 37.7264C66.7111 38.6392 67.2006 39.5409 67.6841 40.4314C68.1899 41.3099 68.6905 42.2055 69.1861 43.1184L70.7272 45.957L72.1632 45.1774C72.4081 45.0444 72.6823 44.9388 72.9857 44.8606C73.2771 44.76 73.5703 44.7161 73.8655 44.7288C74.1606 44.7416 74.4405 44.8058 74.7052 44.9216C74.9698 45.0373 75.1918 45.2339 75.3712 45.5112C75.758 46.2237 75.8013 46.8343 75.501 47.3432C75.1887 47.8299 74.733 48.2647 74.1337 48.6477C74.0892 48.6718 73.9951 48.7374 73.8513 48.8442C73.7177 48.9168 73.5619 49.0014 73.3838 49.0981C73.2057 49.1948 73.0387 49.2854 72.8828 49.37C72.7492 49.4426 72.6592 49.4626 72.6128 49.4302L73.8457 51.7011C73.9786 51.946 74.1297 52.2243 74.299 52.536C74.4682 52.8477 74.6151 53.1714 74.7398 53.5073C74.8524 53.8209 74.9145 54.1476 74.9259 54.4872C74.9596 54.8148 74.8964 55.123 74.7361 55.4119C74.661 55.5391 74.5465 55.6733 74.3926 55.8145C74.2488 55.9214 74.0828 56.0404 73.8945 56.1714C73.7062 56.3025 73.5119 56.4224 73.3115 56.5312C73.1213 56.6056 72.9473 56.6568 72.7896 56.6848C72.3163 56.7688 71.9092 56.6295 71.5682 56.2669C71.2152 55.8821 70.9136 55.5125 70.6636 55.1582C70.6273 55.0914 70.5125 54.8799 70.3191 54.5237C70.1136 54.1452 69.9021 53.7556 69.6845 53.3548C69.4549 52.9318 69.2383 52.5594 69.0347 52.2375C68.8311 51.9156 68.7071 51.7668 68.6626 51.7909L62.7849 54.982C62.1393 55.3325 61.4542 55.69 60.7296 56.0545C60.0051 56.4191 59.2841 56.5511 58.5665 56.4506C58.0086 56.3787 57.5996 56.1828 57.3394 55.8629C57.0671 55.5206 56.89 55.1412 56.8079 54.7245C56.736 54.2735 56.7258 53.8034 56.7773 53.3143C56.8288 52.8251 56.8873 52.3753 56.9528 51.965C57.1824 50.3703 57.3665 48.7714 57.5051 47.1683C57.666 45.5532 57.8329 43.9492 58.0059 42.3564C58.1248 41.5135 58.267 40.6869 58.4323 39.8764C58.62 39.0539 58.7621 38.2273 58.8588 37.3965C58.9166 36.7597 58.9907 36.0997 59.081 35.4165C59.1936 34.7213 59.4556 34.0889 59.8672 33.5196C60.2686 32.9846 60.7142 32.5842 61.204 32.3182C61.6938 32.0523 62.175 32.0361 62.6476 32.2695ZM62.605 40.0757L61.3039 50.9L66.8476 47.8903L62.605 40.0757Z" fill="white"/>
</svg>
