<svg width="90" height="90" viewBox="0 0 90 90" fill="none" xmlns="http://www.w3.org/2000/svg">
<path d="M58.0522 68.3353C58.0522 71.532 55.4875 74.0968 52.2908 74.0968C49.0945 74.0968 46.5044 71.5318 46.5044 68.3353C46.5044 65.1387 49.1074 62.5485 52.2908 62.5485C55.5 62.5485 58.0522 65.1387 58.0522 68.3353ZM25.9733 62.5485C22.7768 62.5485 20.2119 65.1517 20.2119 68.3353C20.2119 71.519 22.7768 74.0968 25.9733 74.0968C29.1699 74.0968 31.7599 71.5318 31.7599 68.3353C31.7599 65.1387 29.1697 62.5485 25.9733 62.5485ZM62.8282 28.4357C24.6467 28.4357 14.9179 26.8184 4.57056 15.9023C8.91692 22.4346 11.3047 34.715 51.7098 34.1212C93.8205 33.4896 68.1345 44.9996 60.6548 57.9875C84.2434 36.926 101.009 28.4357 62.8282 28.4357Z" fill="white"/>
</svg>
