<svg width="90" height="90" viewBox="0 0 90 90" fill="none" xmlns="http://www.w3.org/2000/svg">
<path d="M33.8938 34.9312C36.8673 22.2436 45.6156 13.4785 49.8761 12.0934C55.4513 10.2809 45.7876 35.2938 46.531 47.9815C47.0128 56.2046 49.7894 73.6401 42.0708 76.9819C41.4489 77.2512 44.6726 74.6114 40.9558 62.4817C36.8673 50.8815 32.646 40.2554 33.8938 34.9312Z" stroke="white" stroke-width="2"/>
<path d="M54.5 38C56.7301 33.6499 65.5133 28.3125 67 26.5C68.9147 24.1658 58.2566 42.6499 59 47C59.9875 52.7787 64.5 52.3374 64.5 58.5C64.5 64.6626 54.8584 78.4319 53 76.9819C51.0559 75.465 57.4189 70 56.5 61.5C54.5 43 53.2591 40.4205 54.5 38Z" stroke="white" stroke-width="2"/>
<path d="M22 47.9815C22 41.0939 27.9469 21.775 29.0619 22.5C30.177 23.225 29.0619 40.0064 29.0619 47.9815C29.0619 55.9566 34.2655 71.9125 33.8938 73C33.5221 74.0875 22 54.8691 22 47.9815Z" stroke="white" stroke-width="2"/>
</svg>
